<svg xmlns="http://www.w3.org/2000/svg" xmlns:xlink="http://www.w3.org/1999/xlink" viewBox="0 0 238.07 36.66"><defs><style>.cls-1{fill:#f15f3c;}.cls-2{fill:#fff;}.cls-3{fill:url(#linear-gradient);}.cls-4{fill:url(#linear-gradient-2);}.cls-5{fill:url(#linear-gradient-3);}.cls-6{fill:url(#linear-gradient-4);}</style><linearGradient id="linear-gradient" x1="6707.75" y1="-1852.57" x2="6709.95" y2="-1852.57" gradientTransform="translate(6724.12 -1842.56) rotate(180)" gradientUnits="userSpaceOnUse"><stop offset="0" stop-color="#fff"/><stop offset="1" stop-color="#949494"/></linearGradient><linearGradient id="linear-gradient-2" x1="12.11" y1="17.63" x2="12.11" y2="19.84" gradientTransform="matrix(1, 0, 0, 1, 0, 0)" xlink:href="#linear-gradient"/><linearGradient id="linear-gradient-3" x1="12.11" y1="26.17" x2="12.11" y2="23.93" gradientTransform="matrix(1, 0, 0, 1, 0, 0)" xlink:href="#linear-gradient"/><linearGradient id="linear-gradient-4" x1="7.86" y1="10.01" x2="10.07" y2="10.01" gradientTransform="matrix(1, 0, 0, 1, 0, 0)" xlink:href="#linear-gradient"/></defs><title>imwithsexistlogo</title><g id="Layer_2" data-name="Layer 2"><g id="Layer_1-2" data-name="Layer 1"><path class="cls-1" d="M37.63,7.53h5.23V24.95H37.63Z"/><path class="cls-1" d="M71.39,24.95h-5V14.15l-3.16,10.8H59.37L56,14.15v10.8H51V7.53h6.59l3.68,11.25L65,7.53h6.42Z"/><path class="cls-1" d="M92.79,15.47l-2.91,9.48h-4.5L79.11,7.53h5.47l3.09,10.4,3.06-10.4h4.13l3,10.4L101,7.53h5.47l-6.27,17.42H95.68Z"/><path class="cls-1" d="M108.1,7.53h5.23V24.95H108.1Z"/><path class="cls-1" d="M119.17,12h-3.58V7.53h12.34V12h-3.58v13h-5.17Z"/><path class="cls-1" d="M140.22,18.45h-4.85v6.49H130.2V7.53h5.18v6.62h4.85V7.53h5.2V24.95h-5.2Z"/><path class="cls-1" d="M159.31,19.08a2.16,2.16,0,0,0,2.19,2.46c1,0,1.72-.57,1.72-1.49s-.8-1.37-2.64-2.09c-3.21-1.24-6.07-2.29-6.07-5.85s3.41-5.05,6.89-5.05c5.1,0,6.79,2.94,6.79,5.67H163c0-1.42-.55-2.16-1.72-2.16-.85,0-1.59.42-1.59,1.37s.8,1.42,2.39,2c3,1.07,6.32,2.19,6.32,5.8s-2.71,5.7-7.12,5.7-7.17-2.26-7.17-6.35Z"/><path class="cls-1" d="M176.26,11.41v3h6v3.71h-6v2.91h6v3.88H171.08V7.53H182.3v3.88Z"/><path class="cls-1" d="M194.57,7.53h5.65L195,16.24l5.18,8.71h-5.65l-2.51-5-2.51,5h-5.67L189,16.24l-5.18-8.71h5.67l2.51,5Z"/><path class="cls-1" d="M202,7.53h5.23V24.95H202Z"/><path class="cls-1" d="M215,19.08a2.16,2.16,0,0,0,2.19,2.46c1,0,1.72-.57,1.72-1.49s-.8-1.37-2.64-2.09c-3.21-1.24-6.07-2.29-6.07-5.85s3.41-5.05,6.89-5.05c5.1,0,6.79,2.94,6.79,5.67h-5.18c0-1.42-.55-2.16-1.72-2.16-.85,0-1.59.42-1.59,1.37s.8,1.42,2.39,2c3,1.07,6.32,2.19,6.32,5.8s-2.71,5.7-7.12,5.7-7.17-2.26-7.17-6.35Z"/><path class="cls-1" d="M229.31,12h-3.58V7.53h12.34V12h-3.58v13h-5.18Z"/><path class="cls-1" d="M49,7.53v4.69a5.08,5.08,0,0,1-.29,1.9,5,5,0,0,1-4.06,3.25v-2a2.71,2.71,0,0,0,1.6-1.18,3.93,3.93,0,0,0,.43-1.92h-2V7.53Z"/><polygon class="cls-2" points="12.12 36.66 9.4 33.53 6.69 30.4 12.12 30.4 17.54 30.4 14.83 33.53 12.12 36.66"/><path class="cls-2" d="M4.1,28.23H0V8H16.24a8,8,0,1,1,0,16H6.14v-4.1h10.1a3.89,3.89,0,1,0,0-7.78H4.1Z"/><rect class="cls-2" x="10.07" y="2.25" width="4.1" height="28.98"/><rect class="cls-2" width="24.23" height="4.1"/><rect class="cls-3" x="14.16" y="7.96" width="2.21" height="4.1"/><rect class="cls-4" x="10.07" y="17.63" width="4.1" height="2.21"/><rect class="cls-5" x="10.07" y="23.93" width="4.1" height="2.23"/><rect class="cls-6" x="7.86" y="7.96" width="2.2" height="4.1"/></g></g></svg>